<svg id="Calque_1" xmlns="http://www.w3.org/2000/svg" viewBox="0 0 221 521"><style>.st0{enable-background:new}</style><path d="M1147.6 438.9c4.3 0 7.9-.8 10.9-2.3 3-1.5 5.5-3.5 7.6-5.9 2-2.4 3.5-5.1 4.5-8.2 1-3.1 1.5-6.3 1.5-9.4v-47.9c0-7.3.8-13.7 2.4-19.4 1.6-5.7 4.3-10.4 8.2-14.2 3.9-3.8 9.1-6.7 15.6-8.8 6.5-2 14.5-3.1 24.1-3.1h1.1v19.4c-10.1 0-17.3 1.8-21.7 5.5-4.3 3.6-6.5 10.6-6.5 20.9v41c0 11.7-1.6 20.7-4.7 27.1-3.1 6.4-7.5 11.4-13.2 14.9 5.7 3.5 10.1 8.5 13.2 14.9 3.1 6.4 4.7 15.4 4.7 27.1v41c0 10.3 2.2 17.2 6.5 20.9 4.3 3.6 11.6 5.5 21.7 5.5v19.4h-1.1c-9.6 0-17.6-1-24.1-2.9-6.5-2-11.7-4.9-15.6-8.8-3.9-3.9-6.6-8.7-8.2-14.4-1.6-5.7-2.4-12.1-2.4-19.4v-47.9c0-3.2-.5-6.3-1.5-9.4-1-3.1-2.5-5.9-4.5-8.2-2-2.4-4.6-4.3-7.6-5.9-3-1.5-6.6-2.3-10.9-2.3v-19.2zM1347.4 642.1c-4.3 0-7.9.8-10.9 2.3-3 1.5-5.5 3.5-7.6 5.9-2 2.4-3.5 5.1-4.5 8.2-1 3.1-1.5 6.3-1.5 9.4v47.9c0 7.3-.8 13.7-2.4 19.4-1.6 5.7-4.3 10.4-8.2 14.2-3.9 3.8-9.1 6.7-15.6 8.8-6.5 2-14.5 3.1-24.1 3.1h-1.1v-19.4c10.1 0 17.3-1.8 21.7-5.5 4.3-3.6 6.5-10.6 6.5-20.9v-41c0-11.7 1.6-20.7 4.7-27.1 3.1-6.4 7.5-11.4 13.2-14.9-5.7-3.5-10.1-8.5-13.2-14.9-3.1-6.4-4.7-15.4-4.7-27.1v-41c0-10.3-2.2-17.2-6.5-20.9-4.3-3.6-11.6-5.5-21.7-5.5v-19.4h1.1c9.6 0 17.6 1 24.1 2.9 6.5 2 11.7 4.9 15.6 8.8 3.9 3.9 6.7 8.7 8.2 14.4 1.6 5.7 2.4 12.1 2.4 19.4v47.9c0 3.2.5 6.3 1.5 9.4 1 3.1 2.5 5.9 4.5 8.2 2 2.4 4.6 4.3 7.6 5.9 3 1.5 6.6 2.3 10.9 2.3v19.2z" transform="translate(-1137 -280)" class="st0"/></svg>