<svg xmlns="http://www.w3.org/2000/svg" viewBox="0 0 124.936 62.43"><defs><style>.a{fill:#fff;}</style></defs><g transform="translate(0 0.004)"><path class="a" d="M20.72,26.586V13.851H17.56v-2.23h3.16V10.253A7.565,7.565,0,0,1,21.2,7.366a5.335,5.335,0,0,1,1.272-1.86,4.665,4.665,0,0,1,1.847-1,8.3,8.3,0,0,1,2.2-.287,10.479,10.479,0,0,1,2.339.26,19.056,19.056,0,0,1,2.2.6l-.479,2.3A9.206,9.206,0,0,0,28.8,6.764a8.741,8.741,0,0,0-2.161-.26,4.268,4.268,0,0,0-1.272.178,2.6,2.6,0,0,0-1.04.616,2.736,2.736,0,0,0-.711,1.163,5.335,5.335,0,0,0-.26,1.819v1.368h6.033v2.23H23.36V26.614Z" transform="translate(6.461 1.554)"/><path class="a" d="M35.91,11.271a5.9,5.9,0,0,1,4.678,1.874,8.563,8.563,0,0,1,1.642,5.732v.93H31.478a4.884,4.884,0,0,0,1.532,3.529,5.581,5.581,0,0,0,3.844,1.217,11.176,11.176,0,0,0,2.421-.233,7.414,7.414,0,0,0,1.518-.479L41.15,26.1a8.358,8.358,0,0,1-1.751.547,12.708,12.708,0,0,1-2.832.287,9.07,9.07,0,0,1-3.393-.6A6.84,6.84,0,0,1,30.739,24.7a6.717,6.717,0,0,1-1.45-2.462,9.918,9.918,0,0,1-.479-3.105,9.028,9.028,0,0,1,.616-3.488A7.141,7.141,0,0,1,31.04,13.2,6.388,6.388,0,0,1,33.3,11.75a6.963,6.963,0,0,1,2.613-.479Zm3.557,6.32a4.323,4.323,0,0,0-1-3.01,3.393,3.393,0,0,0-2.64-1.094,3.994,3.994,0,0,0-1.7.342,4.35,4.35,0,0,0-1.368.944,4.5,4.5,0,0,0-.875,1.368,5.745,5.745,0,0,0-.356,1.45ZM38.988,5.9l-4.1,3.926-1.368-1.19L37.278,4.24Z" transform="translate(10.6 1.562)"/><path class="a" d="M50.075,26.89a6.129,6.129,0,0,1-2.353-.383,3.338,3.338,0,0,1-1.491-1.163,5.157,5.157,0,0,1-.766-1.915,13.926,13.926,0,0,1-.233-2.668V6.6H40.91V4.36h6.963V20.776a9.576,9.576,0,0,0,.15,1.847,2.982,2.982,0,0,0,.451,1.135,1.587,1.587,0,0,0,.766.629,3.119,3.119,0,0,0,1.067.164,6.348,6.348,0,0,0,1.669-.274,5.951,5.951,0,0,0,1.259-.479l.4,2.257-.547.233a6.84,6.84,0,0,1-.848.274,9.782,9.782,0,0,1-1.04.233A6.607,6.607,0,0,1,50.075,26.89Z" transform="translate(15.054 1.606)"/><path class="a" d="M57.023,13.644H52.7v-2.23h6.963v9.193a5.02,5.02,0,0,0,.616,2.982,2.189,2.189,0,0,0,1.833.766,6.252,6.252,0,0,0,1.724-.233,6.088,6.088,0,0,0,1.245-.479l.342,2.257-.547.233a6.389,6.389,0,0,1-.821.274,9.084,9.084,0,0,1-1.04.233,6.512,6.512,0,0,1-1.176.1,6.183,6.183,0,0,1-2.353-.383,3.406,3.406,0,0,1-1.491-1.163,4.761,4.761,0,0,1-.78-1.915A14.008,14.008,0,0,1,57,20.607Zm.67-4.542a2,2,0,0,1-1.45-.588,2.038,2.038,0,0,1-.616-1.573,2.093,2.093,0,0,1,.616-1.587,2.134,2.134,0,0,1,2.914,0,2.134,2.134,0,0,1,.6,1.587,2.079,2.079,0,0,1-.6,1.573A2,2,0,0,1,57.693,9.1Z" transform="translate(19.392 1.76)"/><path class="a" d="M75.2,24.6a13.138,13.138,0,0,0-.78-1.368c-.3-.465-.657-1.04-1.026-1.587s-.739-1.094-1.135-1.628-.793-1.053-1.176-1.518c-.4.492-.793,1.012-1.231,1.546s-.834,1.081-1.245,1.628-.766,1.081-1.108,1.6-.629.971-.862,1.368H63.9a34.46,34.46,0,0,1,2.6-3.981c1.026-1.368,2.025-2.654,3.01-3.885L64.119,9.63h3l4.022,5.226L74.857,9.63h2.859l-4.966,6.936c.971,1.272,1.943,2.6,2.927,3.967a34.993,34.993,0,0,1,2.49,4.1Z" transform="translate(23.513 3.545)"/><path class="a" d="M26.891,40.136a6.839,6.839,0,0,1-1.368.547,7.291,7.291,0,0,1-2.148.287,6.689,6.689,0,0,1-2.476-.438,5.472,5.472,0,0,1-2-1.368,6.525,6.525,0,0,1-1.368-2.257A9.576,9.576,0,0,1,17,33.72a9.138,9.138,0,0,1,.465-3.01,7.018,7.018,0,0,1,1.368-2.38,6.32,6.32,0,0,1,2.175-1.559,7.346,7.346,0,0,1,2.927-.561,17.538,17.538,0,0,1,3.31.274q1.368.26,2.3.533V40.369a6.347,6.347,0,0,1-1.751,5.02,7.811,7.811,0,0,1-5.321,1.546,14.158,14.158,0,0,1-2.626-.219,15.664,15.664,0,0,1-2.079-.547l.492-2.353a10.273,10.273,0,0,0,1.915.575,11.477,11.477,0,0,0,2.367.233,4.774,4.774,0,0,0,3.352-.917,3.994,3.994,0,0,0,1-3.023Zm0-11.217a9.138,9.138,0,0,0-1.067-.246,12.722,12.722,0,0,0-1.833-.109,3.721,3.721,0,0,0-3.146,1.368,6.019,6.019,0,0,0-1.108,3.817,7.059,7.059,0,0,0,.3,2.216,4.268,4.268,0,0,0,.848,1.518,3.174,3.174,0,0,0,1.2.862,3.652,3.652,0,0,0,1.45.274,6.06,6.06,0,0,0,1.888-.287,5.882,5.882,0,0,0,1.436-.67Z" transform="translate(6.255 9.646)"/><path class="a" d="M35.322,26.211a8.044,8.044,0,0,1,2.818.424A4.788,4.788,0,0,1,40,27.784a4.336,4.336,0,0,1,1,1.806,8.947,8.947,0,0,1,.287,2.326v9.357l-2.462.383a21.709,21.709,0,0,1-3.146.219,13.789,13.789,0,0,1-2.394-.205,6.1,6.1,0,0,1-2.052-.739,4.022,4.022,0,0,1-1.45-1.464,4.665,4.665,0,0,1-.561-2.394A3.9,3.9,0,0,1,29.8,34.9a4.542,4.542,0,0,1,1.45-1.436,6.525,6.525,0,0,1,2.025-.793,11.943,11.943,0,0,1,2.312-.233,13,13,0,0,1,3.092.356v-.739a5.951,5.951,0,0,0-.15-1.368,2.873,2.873,0,0,0-.547-1.149,2.736,2.736,0,0,0-1.094-.821,4.446,4.446,0,0,0-1.792-.3,13.679,13.679,0,0,0-2.408.192,11.3,11.3,0,0,0-1.587.383L30.78,26.8a7.169,7.169,0,0,1,1.819-.451A18.891,18.891,0,0,1,35.322,26.211Zm.26,13.406h1.792a11.462,11.462,0,0,0,1.368-.164v-4.5a6.375,6.375,0,0,0-1.245-.26,10.835,10.835,0,0,0-1.532-.1,8.523,8.523,0,0,0-1.45.109,4.378,4.378,0,0,0-1.259.4,3.064,3.064,0,0,0-.9.766A1.915,1.915,0,0,0,32,37.046a2.12,2.12,0,0,0,.985,2.011,5.294,5.294,0,0,0,2.6.547Z" transform="translate(10.751 9.645)"/><path class="a" d="M50.375,37.8a1.642,1.642,0,0,0-.657-1.368,6.607,6.607,0,0,0-1.642-.9c-.657-.246-1.368-.506-2.148-.752a11.669,11.669,0,0,1-2.148-.917A5.718,5.718,0,0,1,42.14,32.5a3.215,3.215,0,0,1-.657-2.093,3.789,3.789,0,0,1,1.464-3.023,7.2,7.2,0,0,1,4.6-1.2,18.058,18.058,0,0,1,2.534.178,14.9,14.9,0,0,1,2.24.465l-.451,2.435c-.164-.082-.4-.164-.7-.274a8.345,8.345,0,0,0-1.081-.3,10.478,10.478,0,0,0-1.245-.178c-.438,0-.862-.068-1.272-.068-2.312,0-3.475.629-3.475,1.9a1.368,1.368,0,0,0,.657,1.149,8.44,8.44,0,0,0,1.655.848c.67.26,1.368.52,2.161.793a10.739,10.739,0,0,1,2.161.985A5.964,5.964,0,0,1,52.4,35.478a3.228,3.228,0,0,1,.657,2.079A3.625,3.625,0,0,1,51.47,40.7a8.81,8.81,0,0,1-4.993,1.108,14.049,14.049,0,0,1-2.818-.178,11.094,11.094,0,0,1-2.449-.766l.506-2.421a16.415,16.415,0,0,0,2.38.862,10.3,10.3,0,0,0,2.654.328C49.131,39.623,50.375,39.035,50.375,37.8Z" transform="translate(15.164 9.625)"/><path class="a" d="M65.906,34.049a9.822,9.822,0,0,1-.506,3.2,7.223,7.223,0,0,1-1.368,2.462,6.074,6.074,0,0,1-2.161,1.6,6.553,6.553,0,0,1-2.736.561,6.279,6.279,0,0,1-2.736-.561,6.019,6.019,0,0,1-2.148-1.6,7.483,7.483,0,0,1-1.368-2.462,9.822,9.822,0,0,1-.492-3.2,10,10,0,0,1,.492-3.228,7.209,7.209,0,0,1,1.368-2.462A6.32,6.32,0,0,1,56.4,26.771a6.5,6.5,0,0,1,2.736-.561,6.84,6.84,0,0,1,2.736.561,6.375,6.375,0,0,1,2.161,1.587A6.977,6.977,0,0,1,65.4,30.82,9.986,9.986,0,0,1,65.906,34.049Zm-2.736,0a6.553,6.553,0,0,0-1.094-4.022,3.529,3.529,0,0,0-2.968-1.464,3.461,3.461,0,0,0-2.927,1.464A6.648,6.648,0,0,0,55.1,34.049a6.566,6.566,0,0,0,1.081,3.981,3.461,3.461,0,0,0,2.914,1.464,3.529,3.529,0,0,0,2.968-1.464,6.484,6.484,0,0,0,1.094-3.981Z" transform="translate(19.278 9.646)"/><path class="a" d="M64.88,26.987a27.509,27.509,0,0,1,2.9-.561,21.326,21.326,0,0,1,2.736-.192,6.128,6.128,0,0,1,4.528,1.546,6.84,6.84,0,0,1,1.477,4.979v8.755h-2.64V33.307a9.1,9.1,0,0,0-.26-2.353,3.5,3.5,0,0,0-.725-1.368,2.572,2.572,0,0,0-1.135-.7,5.28,5.28,0,0,0-1.368-.192,12.38,12.38,0,0,0-1.368.082A6.216,6.216,0,0,0,67.657,29V41.514H64.921Z" transform="translate(23.874 9.649)"/><path class="a" d="M5.718,31.163a9.343,9.343,0,0,1,1.874,1.368A7.018,7.018,0,0,1,8.96,34.556a11.409,11.409,0,0,1,.862,2.968,23.925,23.925,0,0,1,.3,4.1v6.84c0,2.025,0,3.707.123,5.061a8.03,8.03,0,0,0,.807,3.283,3.748,3.748,0,0,0,2.079,1.765,12.449,12.449,0,0,0,4.1.52V62.38h-.52a16.183,16.183,0,0,1-5.144-.711A7.5,7.5,0,0,1,8.331,59.6a7.838,7.838,0,0,1-1.683-3.352,20.219,20.219,0,0,1-.479-4.637v-12.5a7.3,7.3,0,0,0-.356-2.285A5.568,5.568,0,0,0,4.692,34.8a6.224,6.224,0,0,0-1.956-1.491A6.142,6.142,0,0,0,0,32.737V29.59A6.142,6.142,0,0,0,2.736,29a5.992,5.992,0,0,0,1.929-1.477A5.568,5.568,0,0,0,5.786,25.5a7.25,7.25,0,0,0,.383-2.243V10.74a20.355,20.355,0,0,1,.479-4.6A7.743,7.743,0,0,1,8.331,2.737,7.5,7.5,0,0,1,11.573.713,16.224,16.224,0,0,1,16.717,0h.52V3.23a12.5,12.5,0,0,0-4.1.506,3.721,3.721,0,0,0-2.038,1.737,7.921,7.921,0,0,0-.807,3.283c-.082,1.368-.123,3.037-.123,5.048v6.84a23.365,23.365,0,0,1-.3,4.1A11.231,11.231,0,0,1,9,27.675,6.84,6.84,0,0,1,7.633,29.7a9.412,9.412,0,0,1-1.915,1.464Z" transform="translate(0 0)"/><path class="a" d="M90.283,31.164A9.028,9.028,0,0,1,88.409,29.8a6.84,6.84,0,0,1-1.368-2.025,11.765,11.765,0,0,1-.875-2.927,24.937,24.937,0,0,1-.287-4.1V13.9c0-2.011,0-3.707-.123-5.048a7.92,7.92,0,0,0-.848-3.379,3.694,3.694,0,0,0-2.093-1.778,12.421,12.421,0,0,0-4.1-.506V0h.52a16.224,16.224,0,0,1,5.144.7,7.5,7.5,0,0,1,3.3,2.038A7.579,7.579,0,0,1,89.339,6.1a19.562,19.562,0,0,1,.492,4.6V23.257a7.25,7.25,0,0,0,.356,2.285,5.568,5.568,0,0,0,1.122,2.025,5.841,5.841,0,0,0,1.929,1.477,6.142,6.142,0,0,0,2.736.588v3.146a6.142,6.142,0,0,0-2.736.575,6.06,6.06,0,0,0-1.929,1.491,5.568,5.568,0,0,0-1.122,2.025,7.305,7.305,0,0,0-.356,2.285v12.5a19.439,19.439,0,0,1-.492,4.637,7.674,7.674,0,0,1-1.669,3.352,7.5,7.5,0,0,1-3.242,2.066,16.183,16.183,0,0,1-5.144.711h-.52V59.166a12.311,12.311,0,0,0,4.1-.52,3.734,3.734,0,0,0,2.093-1.765,8.03,8.03,0,0,0,.807-3.283c.082-1.368.123-3.037.123-5.061V41.7a25.526,25.526,0,0,1,.287-4.1,11.943,11.943,0,0,1,.876-2.968A7.018,7.018,0,0,1,88.423,32.6a8.974,8.974,0,0,1,1.86-1.436Z" transform="translate(28.963 0)"/></g></svg>